<svg width="28" height="28" viewBox="0 0 28 28" fill="none" xmlns="http://www.w3.org/2000/svg">
<rect x="0.343994" y="0.681641" width="27.1667" height="27.1667" rx="3.39583" fill="#F79E8E" fill-opacity="0.2"/>
<mask id="mask0_1476_2096" style="mask-type:alpha" maskUnits="userSpaceOnUse" x="7" y="7" width="14" height="15">
<rect x="7.1355" y="7.47266" width="13.5833" height="13.5833" fill="#D9D9D9"/>
</mask>
<g mask="url(#mask0_1476_2096)">
<path d="M7.70117 14.2648C7.70117 13.3969 7.86398 12.5857 8.18961 11.8311C8.51485 11.0764 8.96046 10.4184 9.52643 9.85697C10.0924 9.2959 10.7527 8.85255 11.5073 8.52693C12.262 8.20169 13.0685 8.03906 13.9269 8.03906C14.7853 8.03906 15.5918 8.20169 16.3464 8.52693C17.101 8.85255 17.7613 9.2959 18.3273 9.85697C18.8933 10.4184 19.3391 11.0764 19.6647 11.8311C19.9899 12.5857 20.1526 13.3969 20.1526 14.2648H19.0206C19.0206 13.5573 18.8863 12.8945 18.6176 12.2765C18.3486 11.6588 17.983 11.1189 17.5208 10.6567C17.0586 10.1945 16.5186 9.83131 15.901 9.56719C15.2829 9.30307 14.6249 9.17101 13.9269 9.17101C13.2288 9.17101 12.5708 9.30307 11.9528 9.56719C11.3351 9.83131 10.7952 10.1945 10.3329 10.6567C9.87073 11.1189 9.50511 11.6588 9.23609 12.2765C8.96744 12.8945 8.83312 13.5573 8.83312 14.2648H7.70117ZM9.96506 14.2648C9.96506 13.1517 10.3518 12.2131 11.1253 11.449C11.8988 10.685 12.8327 10.303 13.9269 10.303C15.0211 10.303 15.9549 10.685 16.7284 11.449C17.5019 12.2131 17.8887 13.1517 17.8887 14.2648H16.7567C16.7567 13.4818 16.4809 12.8144 15.9293 12.2623C15.3773 11.7107 14.7098 11.4349 13.9269 11.4349C13.1439 11.4349 12.4767 11.7107 11.925 12.2623C11.373 12.8144 11.097 13.4818 11.097 14.2648H9.96506ZM12.229 20.1509L11.4366 19.3585L13.3609 17.4342V15.5665C13.1062 15.4533 12.9011 15.2788 12.7457 15.043C12.5899 14.8071 12.5119 14.5477 12.5119 14.2648C12.5119 13.8686 12.6487 13.5337 12.9223 13.2602C13.1958 12.9866 13.5307 12.8498 13.9269 12.8498C14.323 12.8498 14.6579 12.9866 14.9315 13.2602C15.205 13.5337 15.3418 13.8686 15.3418 14.2648C15.3418 14.5477 15.2641 14.8071 15.1086 15.043C14.9528 15.2788 14.7475 15.4533 14.4928 15.5665V17.4342L16.4171 19.3585L15.6248 20.1509L13.9269 18.453L12.229 20.1509Z" fill="#F69E8E"/>
</g>
</svg>
